HIERARCHY
ROOT Hips
{
	OFFSET 0.000000 0.794594 0.001814
	CHANNELS 6 Xposition Yposition Zposition Zrotation Xrotation Yrotation
	JOINT Spine
	{
		OFFSET -0.000000 0.051920 0.010783
		CHANNELS 3 Zrotation Xrotation Yrotation
		JOINT Chest
		{
			OFFSET -0.000000 0.111800 0.002642
			CHANNELS 3 Zrotation Xrotation Yrotation
			JOINT UpperChest
			{
				OFFSET 0.000011 0.124994 0.000757
				CHANNELS 3 Zrotation Xrotation Yrotation
				JOINT Neck
				{
					OFFSET 0.000112 0.117647 -0.020286
					CHANNELS 3 Zrotation Xrotation Yrotation
					JOINT Head
					{
						OFFSET 0.000009 0.074359 -0.000161
						CHANNELS 3 Zrotation Xrotation Yrotation
						JOINT LeftEye
						{
							OFFSET 0.019846 0.051735 0.040589
							CHANNELS 3 Zrotation Xrotation Yrotation
							End Site
							{
								OFFSET -0.000199 0.054090 0.042333
							}
						}
						JOINT RightEye
						{
							OFFSET -0.020226 0.051740 0.040395
							CHANNELS 3 Zrotation Xrotation Yrotation
							End Site
							{
								OFFSET -0.000199 0.054090 0.042333
							}
						}
					}
				}
				JOINT LeftShoulder
				{
					OFFSET 0.022480 0.089795 -0.017341
					CHANNELS 3 Zrotation Xrotation Yrotation
					JOINT LeftUpperArm
					{
						OFFSET 0.087730 -0.000010 0.000425
						CHANNELS 3 Zrotation Xrotation Yrotation
						JOINT LeftLowerArm
						{
							OFFSET 0.210364 0.001462 0.000713
							CHANNELS 3 Zrotation Xrotation Yrotation
							JOINT LeftHand
							{
								OFFSET 0.205444 0.001380 0.000710
								CHANNELS 3 Zrotation Xrotation Yrotation
								JOINT LeftIndexProximal
								{
									OFFSET 0.064499 0.001526 0.020305
									CHANNELS 3 Zrotation Xrotation Yrotation
									JOINT LeftIndexIntermediate
									{
										OFFSET 0.033222 0.000012 0.000212
										CHANNELS 3 Zrotation Xrotation Yrotation
										JOINT LeftIndexDistal
										{
											OFFSET 0.020455 0.000007 0.000130
											CHANNELS 3 Zrotation Xrotation Yrotation
											End Site
											{
												OFFSET 0.020455 0.000007 0.000130
											}
										}
									}
								}
								JOINT LeftLittleProximal
								{
									OFFSET 0.062853 -0.001934 -0.027845
									CHANNELS 3 Zrotation Xrotation Yrotation
									JOINT LeftLittleIntermediate
									{
										OFFSET 0.031399 0.000011 0.000200
										CHANNELS 3 Zrotation Xrotation Yrotation
										JOINT LeftLittleDistal
										{
											OFFSET 0.018096 0.000006 0.000115
											CHANNELS 3 Zrotation Xrotation Yrotation
											End Site
											{
												OFFSET 0.018096 0.000006 0.000115
											}
										}
									}
								}
								JOINT LeftMiddleProximal
								{
									OFFSET 0.066609 0.003802 0.003549
									CHANNELS 3 Zrotation Xrotation Yrotation
									JOINT LeftMiddleIntermediate
									{
										OFFSET 0.037005 0.000014 0.000236
										CHANNELS 3 Zrotation Xrotation Yrotation
										JOINT LeftMiddleDistal
										{
											OFFSET 0.022829 0.000008 0.000145
											CHANNELS 3 Zrotation Xrotation Yrotation
											End Site
											{
												OFFSET 0.022829 0.000008 0.000145
											}
										}
									}
								}
								JOINT LeftRingProximal
								{
									OFFSET 0.066900 0.003345 -0.012193
									CHANNELS 3 Zrotation Xrotation Yrotation
									JOINT LeftRingIntermediate
									{
										OFFSET 0.034327 0.000013 0.000219
										CHANNELS 3 Zrotation Xrotation Yrotation
										JOINT LeftRingDistal
										{
											OFFSET 0.019811 0.000007 0.000126
											CHANNELS 3 Zrotation Xrotation Yrotation
											End Site
											{
												OFFSET 0.019811 0.000007 0.000126
											}
										}
									}
								}
								JOINT LeftThumbProximal
								{
									OFFSET 0.001848 -0.006641 0.017858
									CHANNELS 3 Zrotation Xrotation Yrotation
									JOINT LeftThumbIntermediate
									{
										OFFSET 0.030327 -0.003605 0.035110
										CHANNELS 3 Zrotation Xrotation Yrotation
										JOINT LeftThumbDistal
										{
											OFFSET 0.019149 -0.004134 0.020871
											CHANNELS 3 Zrotation Xrotation Yrotation
											End Site
											{
												OFFSET 0.019148 -0.004134 0.020871
											}
										}
									}
								}
							}
						}
					}
				}
				JOINT RightShoulder
				{
					OFFSET -0.022291 0.089804 -0.017557
					CHANNELS 3 Zrotation Xrotation Yrotation
					JOINT RightUpperArm
					{
						OFFSET -0.087729 0.000010 -0.000425
						CHANNELS 3 Zrotation Xrotation Yrotation
						JOINT RightLowerArm
						{
							OFFSET -0.210400 0.000109 -0.000862
							CHANNELS 3 Zrotation Xrotation Yrotation
							JOINT RightHand
							{
								OFFSET -0.205447 0.000043 -0.000839
								CHANNELS 3 Zrotation Xrotation Yrotation
								JOINT RightIndexProximal
								{
									OFFSET -0.064690 0.001513 0.019688
									CHANNELS 3 Zrotation Xrotation Yrotation
									JOINT RightIndexIntermediate
									{
										OFFSET -0.033222 0.000005 -0.000106
										CHANNELS 3 Zrotation Xrotation Yrotation
										JOINT RightIndexDistal
										{
											OFFSET -0.020455 0.000003 -0.000065
											CHANNELS 3 Zrotation Xrotation Yrotation
											End Site
											{
												OFFSET -0.020455 0.000003 -0.000065
											}
										}
									}
								}
								JOINT RightLittleProximal
								{
									OFFSET -0.062584 -0.001948 -0.028445
									CHANNELS 3 Zrotation Xrotation Yrotation
									JOINT RightLittleIntermediate
									{
										OFFSET -0.031399 0.000005 -0.000100
										CHANNELS 3 Zrotation Xrotation Yrotation
										JOINT RightLittleDistal
										{
											OFFSET -0.018096 0.000003 -0.000057
											CHANNELS 3 Zrotation Xrotation Yrotation
											End Site
											{
												OFFSET -0.018096 0.000003 -0.000057
											}
										}
									}
								}
								JOINT RightMiddleProximal
								{
									OFFSET -0.066640 0.003789 0.002912
									CHANNELS 3 Zrotation Xrotation Yrotation
									JOINT RightMiddleIntermediate
									{
										OFFSET -0.037006 0.000006 -0.000118
										CHANNELS 3 Zrotation Xrotation Yrotation
										JOINT RightMiddleDistal
										{
											OFFSET -0.022829 0.000003 -0.000072
											CHANNELS 3 Zrotation Xrotation Yrotation
											End Site
											{
												OFFSET -0.022829 0.000003 -0.000072
											}
										}
									}
								}
								JOINT RightRingProximal
								{
									OFFSET -0.066782 0.003330 -0.012832
									CHANNELS 3 Zrotation Xrotation Yrotation
									JOINT RightRingIntermediate
									{
										OFFSET -0.034327 0.000005 -0.000109
										CHANNELS 3 Zrotation Xrotation Yrotation
										JOINT RightRingDistal
										{
											OFFSET -0.019810 0.000003 -0.000063
											CHANNELS 3 Zrotation Xrotation Yrotation
											End Site
											{
												OFFSET -0.019810 0.000003 -0.000063
											}
										}
									}
								}
								JOINT RightThumbProximal
								{
									OFFSET -0.002018 -0.006641 0.017839
									CHANNELS 3 Zrotation Xrotation Yrotation
									JOINT RightThumbIntermediate
									{
										OFFSET -0.032510 -0.005698 0.032803
										CHANNELS 3 Zrotation Xrotation Yrotation
										JOINT RightThumbDistal
										{
											OFFSET -0.020784 -0.005080 0.019013
											CHANNELS 3 Zrotation Xrotation Yrotation
											End Site
											{
												OFFSET -0.020784 -0.005080 0.019014
											}
										}
									}
								}
							}
						}
					}
				}
			}
		}
	}
	JOINT LeftUpperLeg
	{
		OFFSET 0.077122 -0.039594 -0.005714
		CHANNELS 3 Zrotation Xrotation Yrotation
		JOINT LeftLowerLeg
		{
			OFFSET 0.000039 -0.343083 0.004042
			CHANNELS 3 Zrotation Xrotation Yrotation
			JOINT LeftFoot
			{
				OFFSET -0.000000 -0.401029 -0.031329
				CHANNELS 3 Zrotation Xrotation Yrotation
				JOINT LeftToes
				{
					OFFSET 0.000000 -0.001594 0.127952
					CHANNELS 3 Zrotation Xrotation Yrotation
					End Site
					{
						OFFSET -0.000000 -0.001594 0.127952
					}
				}
			}
		}
	}
	JOINT RightUpperLeg
	{
		OFFSET -0.077122 -0.039594 -0.005714
		CHANNELS 3 Zrotation Xrotation Yrotation
		JOINT RightLowerLeg
		{
			OFFSET -0.000006 -0.343087 0.003707
			CHANNELS 3 Zrotation Xrotation Yrotation
			JOINT RightFoot
			{
				OFFSET -0.000000 -0.401029 -0.031326
				CHANNELS 3 Zrotation Xrotation Yrotation
				JOINT RightToes
				{
					OFFSET -0.000000 -0.001593 0.127952
					CHANNELS 3 Zrotation Xrotation Yrotation
					End Site
					{
						OFFSET -0.000000 -0.001593 0.127952
					}
				}
			}
		}
	}
}
MOTION
Frames: 4
Frame Time: 0.016667
0.000000 0.794594 0.001814 -0.000000 0.000000 -0.000000 0.000000 -0.000000 0.000000 0.000000 0.000000 0.000000 -0.000000 -0.000000 -0.000000 0.000000 -0.000000 -0.000000 -0.000000 -0.000001 -0.000000 -0.000000 -0.000003 -0.000000 -0.000000 -0.000003 -0.000000 0.000000 0.000001 -0.000000 0.000000 0.000002 -0.000000 -0.000000 0.000000 0.000000 0.000000 0.000002 -0.000000 0.000000 0.000000 0.000000 -0.000000 0.000000 0.000000 -0.000000 0.000000 0.000000 -0.000000 0.000000 0.000000 -0.000000 0.000000 0.000000 0.000000 0.000000 0.000000 0.000000 0.000000 0.000000 0.000000 0.000000 0.000000 0.000000 0.000000 0.000000 0.000000 -0.000000 0.000000 -0.000000 0.000000 -0.000000 -0.000000 0.000000 -0.000000 -0.000002 0.000000 -0.000003 -0.000000 -0.000004 -0.000004 0.000001 -0.000002 -0.000003 0.000000 0.000000 -0.000000 0.000000 0.000000 -0.000000 0.000000 0.000000 -0.000000 -0.000000 0.000000 -0.000000 0.000000 -0.000000 0.000000 0.000000 -0.000000 0.000000 -0.000000 -0.000000 0.000000 0.000000 -0.000000 0.000000 0.000000 -0.000000 0.000000 0.000000 -0.000000 0.000000 0.000000 -0.000000 0.000000 0.000000 -0.000000 -0.000000 0.000000 -0.000000 -0.000000 0.000000 -0.000000 0.000000 -0.000000 -0.000000 -0.000000 0.000000 -0.000000 -0.000000 -0.000000 0.000001 -0.000006 0.000001 -0.000001 0.000003 0.000002 -0.000001 0.000001 0.000000 -0.000000 0.000000 -0.000000 -0.000000 0.000000 -0.000000 -0.000000 -0.000000 -0.000000 -0.000000 0.000000 -0.000000 0.000000 0.000000 0.000000 -0.000000 0.000000 0.000000 -0.000000 -0.000000 -0.000000 -0.000000 0.000000 
-0.002301 0.791763 0.015186 -1.414388 -0.044969 -7.709754 -1.599501 0.878731 -0.284296 3.590966 -3.844948 -0.042297 -0.103852 -3.584396 0.067445 -4.959664 -2.622598 -1.608985 -10.284583 8.906860 5.498224 0.000065 0.000026 0.000018 0.000066 0.000026 0.000018 -4.923522 -0.059648 -0.687549 -24.004022 57.180397 -49.866709 5.586055 1.668880 -71.251973 -13.078139 -4.928194 -8.624088 -14.449381 -2.316673 4.064150 -26.368526 -0.480804 -4.658070 -26.368804 -0.480807 -4.657999 -16.783308 4.100176 -12.825931 -26.484668 0.375437 -3.715850 -26.485471 0.375480 -3.715836 -17.976189 -0.600506 -0.881515 -26.485168 0.375532 -3.716042 -26.485409 0.375540 -3.716027 -17.665531 1.095741 -5.108425 -26.485261 0.375561 -3.716079 -26.485431 0.375533 -3.716005 10.247763 -6.352313 19.141619 -9.602985 4.581288 19.616923 -7.502285 3.546038 16.061683 3.472177 -0.061160 0.504264 36.717615 61.157049 44.956114 -1.095514 -0.352799 30.503102 4.537628 30.183426 10.259350 31.942288 -2.884311 0.497688 31.579178 -0.318579 5.576598 31.579612 -0.318567 5.576636 31.118369 4.156738 9.335019 31.713391 0.652151 4.407503 31.713777 0.652153 4.407509 31.915135 -1.335099 1.655113 31.713706 0.652232 4.407734 31.713791 0.652205 4.407721 31.713600 0.651863 4.407238 31.713733 0.652289 4.407692 31.713770 0.652175 4.407744 -6.913808 -4.802289 -13.871768 4.856305 1.366986 -23.928717 3.634879 0.788289 -19.580633 0.519857 -6.760926 -6.647634 0.008624 17.447553 0.025585 -4.571156 -7.981238 2.023512 0.000000 -0.000000 0.000000 1.988836 -0.383366 26.147346 -0.002438 12.817256 -0.018062 6.130604 -5.006997 -2.380217 0.000000 -0.000001 0.000000 
-0.002282 0.791684 0.015244 -1.418011 -0.020035 -7.708014 -1.605908 0.859069 -0.276737 3.591782 -3.858619 -0.041291 -0.103048 -3.598103 0.068324 -4.960030 -2.622835 -1.605789 -10.271631 8.923462 5.490883 0.000031 -0.000054 -0.000026 0.000032 -0.000054 -0.000026 -4.923758 -0.059692 -0.687630 -26.953859 55.479834 -46.756572 5.443347 1.624771 -70.598850 -13.125026 -5.459883 -8.796266 -14.392629 -2.285867 4.058832 -26.255561 -0.485700 -4.653977 -26.229492 -0.486865 -4.652972 -17.058235 4.222871 -12.784112 -26.457894 0.373663 -3.716037 -26.458678 0.373697 -3.716015 -19.091303 -0.581514 -0.892988 -27.243099 0.425877 -3.710742 -27.243953 0.425953 -3.710703 -18.775961 1.218414 -5.077097 -27.243000 0.425907 -3.710750 -27.244426 0.425961 -3.710709 10.219269 -6.341147 19.100366 -9.555681 4.569484 19.597078 -7.492157 3.546501 16.060147 3.462800 -0.061029 0.502894 37.077142 61.048299 44.259226 -1.107999 -0.364082 30.933602 4.461839 30.471649 10.019485 31.942295 -2.884297 0.497677 31.579216 -0.318584 5.576587 31.579598 -0.318554 5.576642 31.118362 4.156755 9.335006 31.713402 0.652164 4.407506 31.713764 0.652150 4.407519 31.915148 -1.335071 1.655104 31.713682 0.652240 4.407737 31.713774 0.652207 4.407737 31.713589 0.651907 4.407224 31.713736 0.652281 4.407688 31.713774 0.652183 4.407745 -6.913796 -4.802271 -13.871761 4.856305 1.366987 -23.928707 3.634887 0.788276 -19.580641 0.487527 -7.042081 -6.666811 0.018216 18.043697 0.025505 -4.591973 -7.927408 2.006615 -0.000000 0.000001 -0.000001 2.218674 -0.854508 26.149197 -0.003106 13.890105 -0.019821 6.157522 -5.003080 -2.315624 0.000000 -0.000001 -0.000002 
-0.002263 0.791693 0.015316 -1.413346 0.053364 -7.699256 -1.611432 0.815489 -0.264501 3.592677 -3.896787 -0.039337 -0.102286 -3.636318 0.070150 -4.959508 -2.623068 -1.601783 -10.205985 8.955683 5.468625 0.000027 -0.000206 -0.000075 0.000027 -0.000206 -0.000075 -4.924473 -0.059830 -0.687870 -29.779225 53.787723 -42.930071 5.835223 1.742292 -72.365158 -13.143280 -5.884537 -9.012841 -14.227160 -2.196473 4.043108 -25.927775 -0.499867 -4.642028 -25.825080 -0.504349 -4.638214 -17.268602 4.444250 -12.703970 -26.380202 0.368485 -3.716528 -26.381018 0.368532 -3.716517 -20.102452 -0.564142 -0.903076 -27.896815 0.469262 -3.705633 -27.898177 0.469322 -3.705562 -19.782904 1.372337 -5.027361 -27.896579 0.469268 -3.705628 -27.899105 0.469391 -3.705562 10.135839 -6.308387 18.979807 -9.418239 4.534912 19.538965 -7.462419 3.547750 16.054655 3.435465 -0.060675 0.498909 38.042043 60.735504 42.330275 -1.142753 -0.397113 32.161175 5.052366 31.401829 8.869429 31.942298 -2.884337 0.497639 31.579178 -0.318582 5.576597 31.579619 -0.318562 5.576634 31.118362 4.156705 9.334984 31.713385 0.652169 4.407500 31.713770 0.652160 4.407515 31.915121 -1.335116 1.655073 31.713692 0.652224 4.407737 31.713781 0.652216 4.407697 31.713586 0.651860 4.407208 31.713706 0.652292 4.407688 31.713767 0.652164 4.407746 -6.913792 -4.802275 -13.871806 4.856293 1.366980 -23.928721 3.634896 0.788278 -19.580626 0.458146 -7.438759 -6.692311 0.015160 18.655625 0.025220 -4.612883 -7.823331 1.993660 -0.000001 0.000000 0.000000 2.412768 -1.319457 26.149178 -0.000079 14.816963 -0.021169 6.184496 -4.946484 -2.261395 -0.000000 -0.000000 -0.000000 
